<?xml version="1.0" standalone="no"?><!DOCTYPE svg PUBLIC "-//W3C//DTD SVG 1.1//EN" "http://www.w3.org/Graphics/SVG/1.1/DTD/svg11.dtd"><svg t="1651646436394" class="icon" viewBox="0 0 1024 1024" version="1.1" xmlns="http://www.w3.org/2000/svg" p-id="2106" width="32" height="32" xmlns:xlink="http://www.w3.org/1999/xlink"><defs><style type="text/css">@font-face { font-family: element-icons; src: url("chrome-extension://moombeodfomdpjnpocobemoiaemednkg/fonts/element-icons.woff") format("woff"), url("chrome-extension://moombeodfomdpjnpocobemoiaemednkg/fonts/element-icons.ttf ") format("truetype"); }
</style></defs><path d="M954.456111 325.047074c-24.181749-57.186444-58.799174-108.536972-102.891392-152.627143-44.091194-44.088124-95.442746-78.70248-152.628166-102.883205-59.20952-25.035186-122.103966-37.7293-186.936553-37.7293s-127.72601 12.694113-186.93553 37.7293c-57.186444 24.179702-108.537995 58.795081-152.629189 102.883205-44.091194 44.089148-78.709643 95.440699-102.891392 152.627143-25.038256 59.21259-37.734416 122.112152-37.734416 186.951903 0 64.839751 12.69616 127.740336 37.734416 186.952926 24.181749 57.186444 58.800197 108.536972 102.891392 152.626119 44.090171 44.088124 95.442746 78.70248 152.629189 102.882182 59.20952 25.036209 122.103966 37.7293 186.93553 37.7293s127.72601-12.694113 186.936553-37.7293c57.186444-24.179702 108.536972-58.794058 152.628166-102.882182 44.092217-44.089148 78.709643-95.440699 102.891392-152.626119 25.039279-59.21259 37.734416-122.113175 37.734416-186.952926C992.190527 447.160249 979.49539 384.259664 954.456111 325.047074zM512 961.491341c-247.850901 0-449.491341-201.641463-449.491341-449.491341S264.150122 62.507636 512 62.507636c247.849878 0 449.491341 201.641463 449.491341 449.491341S759.849878 961.491341 512 961.491341z" p-id="2107" fill="#63ba4d"></path><path d="M304.46327 478.796784l-16.563234 0c-4.688789 0-8.319479 3.63069-8.319479 8.319479l0 248.984724c0 4.688789 3.63069 8.319479 8.319479 8.319479l16.563234 0c4.688789 0 8.319479-3.63069 8.319479-8.319479L312.782749 487.116263C312.782749 482.427474 309.152059 478.796784 304.46327 478.796784z" p-id="2108" fill="#63ba4d"></path><path d="M512 512c-36.832883 0-66.405409 29.572526-66.405409 66.405409 0 24.391527 13.462616 45.644573 33.203216 57.065693l0 59.145052c0 9.340739 7.260357 16.601096 16.563234 16.601096l33.278941 0c9.302877 0 16.563234-7.260357 16.563234-16.601096l0-59.145052c19.7406-11.42112 33.203216-32.673144 33.203216-57.065693C578.406432 541.572526 548.833907 512 512 512z" p-id="2109" fill="#63ba4d"></path><path d="M512 113.564475c-219.941248 0-398.435525 178.456415-398.435525 398.435525s178.494277 398.435525 398.435525 398.435525 398.435525-178.456415 398.435525-398.435525S731.941248 113.564475 512 113.564475zM329.421708 362.586039c0-100.629885 81.910545-182.616154 182.578292-182.616154s182.578292 81.986269 182.578292 182.616154l0 49.804313c0 9.340739-7.260357 16.601096-16.563234 16.601096l-33.203216 0c-9.302877 0-16.638959-7.260357-16.638959-16.601096l0-49.804313c0-64.326051-51.80897-116.210745-116.172883-116.210745s-116.172883 51.884694-116.172883 116.210745l0 49.804313c0 9.340739-7.336082 16.601096-16.638959 16.601096l-33.203216 0c-9.302877 0-16.563234-7.260357-16.563234-16.601096L329.421708 362.586039zM777.623683 744.420467c0 18.152429-15.050788 33.203216-33.203216 33.203216L279.579533 777.623683c-18.152429 0-33.203216-15.050788-33.203216-33.203216L246.376317 478.796784c0-18.152429 15.050788-33.203216 33.203216-33.203216l464.840934 0c18.152429 0 33.203216 15.050788 33.203216 33.203216L777.623683 744.420467z" p-id="2110" fill="#63ba4d"></path></svg>